{"title":"Dear God No 2011 DVDSCR XviD-26k","uid":7094610,"size":1511566449,"categoryP":"video","categoryS":"movies","magnet":"?xt=urn:btih:7fc93dbb9f89a658744aa025015023477c0ab8dd&amp;dn=Dear+God+No+2011+DVDSCR+XviD-26k&amp;tr=udp%3A%2F%2Ftracker.openbittorrent.com%3A80&amp;tr=udp%3A%2F%2Fopen.demonii.com%3A1337&amp;tr=udp%3A%2F%2Ftracker.coppersurfer.tk%3A6969&amp;tr=udp%3A%2F%2Fexodus.desync.com%3A6969","seeders":0,"leechers":1,"uploader":"MisterNobody","files":-1,"time":1331532077,"description":"Dear God No 2011 DVDSCR XviD-26k\n\n\n &lt;a href=&quot;\nhttp://www.imdb.com/title/tt1947998/&quot; rel=&quot;nofollow&quot; target=&quot;_NEW&quot;&gt;\nhttp://www.imdb.com/title/tt1947998/&lt;/a&gt;\n\n\n\nPlot:\n\nA gang of outlaw bikers pull a home invasion on a disgraced Anthropologist hiding a secret locked in his cabin basement.\n\n\n\nSources - SiC....Thanks \n\n\n\nFormat                                   : AVI\n\nFormat/Info                              : Audio Video Interleave\n\nFile size                                : 1.41 GiB\n\nDuration                                 : 1h 21mn\n\nOverall bit rate                         : 2 473 Kbps\n\nWriting library                          : VirtualDub build 32839/release\n\n\n\nVideo\n\nID                                       : 0\n\nFormat                                   : MPEG-4 Visual\n\nFormat profile                           : Advanced Simple@L5\n\nFormat settings, BVOP                    : 2\n\nFormat settings, QPel                    : No\n\nFormat settings, GMC                     : No warppoints\n\nFormat settings, Matrix                  : Default (H.263)\n\nMuxing mode                              : Packed bitstream\n\nCodec ID                                 : XVID\n\nCodec ID/Hint                            : XviD\n\nDuration                                 : 1h 21mn\n\nBit rate                                 : 2 271 Kbps\n\nWidth                                    : 720 pixels\n\nHeight                                   : 400 pixels\n\nDisplay aspect ratio                     : 16:9\n\nFrame rate                               : 23.976 fps\n\nColor space                              : YUV\n\nChroma subsampling                       : 4:2:0\n\nBit depth                                : 8 bits\n\nScan type                                : Progressive\n\nCompression mode                         : Lossy\n\nBits/(Pixel*Frame)                       : 0.329\n\nStream size                              : 1.29 GiB (92%)\n\nWriting library                          : XviD 1.2.1 (UTC 2008-12-04)\n\n\n\nAudio\n\nID                                       : 1\n\nFormat                                   : AC-3\n\nFormat/Info                              : Audio Coding 3\n\nMode extension                           : CM (complete main)\n\nCodec ID                                 : 2000\n\nDuration                                 : 1h 21mn\n\nBit rate mode                            : Constant\n\nBit rate                                 : 192 Kbps\n\nChannel(s)                               : 2 channels\n\nChannel positions                        : Front: L R\n\nSampling rate                            : 48.0 KHz\n\nBit depth                                : 16 bits\n\nCompression mode                         : Lossy\n\nStream size                              : 112 MiB (8%)\n\nAlignment                                : Split accross interleaves\n\nInterleave, duration                     : 42 ms (1.00 video frame)\n\nInterleave, preload duration             : 500 ms\n\n\n\n\n\n\n\n\n\nNotes -\n\n\n\nDenoised, degrained, levels and a touch of brightness. turned out good.. enjoy","torrent":{"xt":"urn:btih:7fc93dbb9f89a658744aa025015023477c0ab8dd","amp;dn":"Dear+God+No+2011+DVDSCR+XviD-26k","amp;tr":["udp%3A%2F%2Ftracker.openbittorrent.com%3A80","udp%3A%2F%2Fopen.demonii.com%3A1337","udp%3A%2F%2Ftracker.coppersurfer.tk%3A6969","udp%3A%2F%2Fexodus.desync.com%3A6969"],"infoHash":"7fc93dbb9f89a658744aa025015023477c0ab8dd","infoHashBuffer":{"type":"Buffer","data":[127,201,61,187,159,137,166,88,116,74,160,37,1,80,35,71,124,10,184,221]},"announce":[],"urlList":[]}}